PathFileType	4	(X/Y/Z)	/Users/visionmauri/Downloads/Videos/OAW10-top_Sports2D/OAW10-top_Sports2D_m_person00.trc
DataRate	CameraRate	NumFrames	NumMarkers	Units	OrigDataRate	OrigDataStartFrame	OrigNumFrames
25.0	25.0	10	22	m	25.0	1315	1754
Frame#	Time	Hip			RHip			RKnee			RAnkle			RBigToe			RSmallToe			RHeel			LHip			LKnee			LAnkle			LBigToe			LSmallToe			LHeel			Neck			Head			Nose			RShoulder			RElbow			RWrist			LShoulder			LElbow			LWrist			
		X1	Y1	Z1	X2	Y2	Z2	X3	Y3	Z3	X4	Y4	Z4	X5	Y5	Z5	X6	Y6	Z6	X7	Y7	Z7	X8	Y8	Z8	X9	Y9	Z9	X10	Y10	Z10	X11	Y11	Z11	X12	Y12	Z12	X13	Y13	Z13	X14	Y14	Z14	X15	Y15	Z15	X16	Y16	Z16	X17	Y17	Z17	X18	Y18	Z18	X19	Y19	Z19	X20	Y20	Z20	X21	Y21	Z21	X22	Y22	Z22
1315	52.63000570450656	3.1537379721550067	0.5555372222419627	0.0301	3.1171221456553595	0.5887138838465307	0.0301	2.9497867201751813	0.4302172761715524	0.129	2.8574519794460134	0.34753746827265986	0.023	2.797210932236251	0.2729935752257209	0.2179	2.786712889626678	0.30130264182558303	0.1804	2.85198493124995	0.33891212355738826	-0.0119	3.186853367358752	0.5203956254362915	0.0301	3.0010740490258128	0.3782776960510022	0.129	2.849543153138422	0.23788375153361868	0.023	2.777348111976133	0.19377070932463178	0.2179	2.8027102743173695	0.17674756166381983	0.1804	2.8339922546494383	0.22729359989328496	-0.0119	3.3711524033730607	0.7726703929869757	0.0008	3.4616751733765962	0.8603999184929377	0.0655	3.3770094704095612	0.7855883589524328	0.1076	3.2833317024815583	0.8288023614187873	-0.01275	3.135228927180569	0.7290443294482989	0.0702	3.013950421965346	0.6358158282361949	0.1076	3.4271577484966897	0.6854902035202574	-0.01275	3.331999977706493	0.535973139798658	0.0702	3.2404369802834627	0.42315809044962754	0.1076
1316	52.670028522532796	3.152821135808464	0.5549317039760235	0.0301	3.1166718657661017	0.5883320032068211	0.0301	2.9460151139649446	0.4312948540443649	0.129	2.845221302249024	0.33716843949292985	0.023	2.7806448186065866	0.2669561369867422	0.2179	2.7701881093117353	0.29481289328756227	0.1804	2.8369434542699596	0.3239641211172124	-0.0119	3.1873083000776328	0.519795751396013	0.0301	3.0017878654024606	0.3767542582883847	0.129	2.851025078062737	0.23937416586220595	0.023	2.7766964783277217	0.1946152858964236	0.2179	2.801860941415067	0.17772992459161568	0.1804	2.8337290809176245	0.2270319768687404	-0.0119	3.370410611338576	0.7735168560245798	0.0008	3.45724244056757	0.8637217712960823	0.0655	3.3740852701058257	0.7892027675107669	0.1076	3.284509909065904	0.8322665006301433	-0.01275	3.1345502474095204	0.7290201759374726	0.0702	3.0167628784842835	0.6310519571086828	0.1076	3.4303739204146004	0.6879509813346735	-0.01275	3.3359483867458066	0.5362709468491184	0.0702	3.241437589845208	0.4201058047209565	0.1076
1317	52.71005134055903	3.1507347690813976	0.5540524878233178	0.0301	3.114288696290498	0.5868846602785638	0.0301	2.9433193195228102	0.43081245228444415	0.129	2.825954585568585	0.3220046460807425	0.023	2.759780893746045	0.2569253561373401	0.2179	2.7498523728990576	0.28379177850770515	0.1804	2.8146542649174395	0.3065151815659488	-0.0119	3.1848505237183375	0.5178010003007947	0.0301	3.0012646731557053	0.3734710676935921	0.129	2.8525070669138235	0.2413104479117862	0.023	2.774848770095498	0.19678579762534876	0.2179	2.800041752221674	0.17987086966563162	0.1804	2.836231892115968	0.22868495439140388	-0.0119	3.371462737457986	0.776608235144787	0.0008	3.4522832280557783	0.8611767604065532	0.0655	3.370231561066564	0.7880572770192494	0.1076	3.2856361261514064	0.8348828680823255	-0.01275	3.135304083241462	0.7300264542869604	0.0702	3.019832814006814	0.6275700395319854	0.1076	3.4332684084507274	0.6906632000415591	-0.01275	3.3391107775506095	0.5365016162122764	0.0702	3.24296465298105	0.4195178511470823	0.1076
1318	52.75007415858528	3.147178184970694	0.5525754767471395	0.0301	3.1091671330038646	0.5842732399085315	0.0301	2.9406965764761415	0.4288103581823583	0.129	2.8038540644394465	0.30844018691618624	0.023	2.7373783469637134	0.24765652115718184	0.2179	2.7274835985298056	0.2741307858188	0.1804	2.7909905451452657	0.2925294814401044	-0.0119	3.1799947017333072	0.5140059401297731	0.0301	2.998513109416428	0.36902836921508453	0.129	2.852231981140144	0.2416736669583593	0.023	2.773672333905963	0.19772287293229834	0.2179	2.7991375975714194	0.1806266595952758	0.1804	2.8382180683452067	0.22956532586749812	-0.0119	3.3708394658725225	0.778017128928767	0.0008	3.44735343019492	0.8563150941452742	0.0655	3.36437026499079	0.7809930331869736	0.1076	3.2844718516401366	0.835622784844311	-0.01275	3.1353639619445715	0.7296960720678304	0.0702	3.020952818114177	0.6244548593817396	0.1076	3.4330252751640127	0.6915771883092966	-0.01275	3.340462191206373	0.5365741682004432	0.0702	3.244188439371705	0.4205525098193648	0.1076
1319	52.790096976611515	3.141985299034285	0.55054768784839	0.0301	3.1030045316662336	0.58258168559244	0.0301	2.9367421705995493	0.42665772933205803	0.129	2.7828089335765696	0.2997307182399317	0.023	2.7174674018835514	0.24415689407747065	0.2179	2.706096183137202	0.2701512104963116	0.1804	2.768070538281035	0.28241142464835883	-0.0119	3.1748431442661995	0.5106906834960724	0.0301	2.9941505672627295	0.3637899650393034	0.129	2.850223497845521	0.2399209900521269	0.023	2.775578679272832	0.1951872049543307	0.2179	2.8004776979007207	0.17889656537526802	0.1804	2.837804405026854	0.22919759353685099	-0.0119	3.3646459321557347	0.7742475297121452	0.0008	3.444837579446669	0.8602909416521006	0.0655	3.357419785716838	0.7764441118083286	0.1076	3.2807028253122925	0.8346752958730477	-0.01275	3.1322262201290343	0.7263829116707582	0.0702	3.018414576218068	0.61887323440079	0.1076	3.4289764475548954	0.690488582670925	-0.01275	3.3397426619634523	0.5363398513856793	0.0702	3.2433887946268607	0.4215376900029879	0.1076
1320	52.83011979463776	3.135479071846098	0.5484739091826635	0.0301	3.0969111905987754	0.582620563007222	0.0301	2.931751525096137	0.4246668094358073	0.129	2.7665145389961703	0.29529868671902865	0.023	2.7048588819980304	0.243718635776427	0.2179	2.6901807525924677	0.2687535630047534	0.1804	2.749211228270419	0.2766214258880997	-0.0119	3.169827476203884	0.5085608224923175	0.0301	2.9887959575322287	0.3593631138455725	0.129	2.847822794433084	0.23731914820433656	0.023	2.778057603562916	0.19199179148744616	0.2179	2.801928784000513	0.17680568472777336	0.1804	2.8364319145982186	0.22823724497208941	-0.0119	3.3553969762645486	0.7682679359577218	0.0008	3.440363272711579	0.8668761959509685	0.0655	3.3500285395517855	0.7769470256020427	0.1076	3.275009737683458	0.8317095552633318	-0.01275	3.127155154207171	0.7215184372479514	0.0702	3.0128340869438035	0.6119744917051249	0.1076	3.4224778278462287	0.6884171605898338	-0.01275	3.3365548572689	0.5344154754532479	0.0702	3.239752563957467	0.42174914886091097	0.1076
1321	52.870142612664	3.12873857844442	0.5466236858468179	0.0301	3.0902114998150414	0.5820946659997583	0.0301	2.927300388216578	0.4222461391061213	0.129	2.7567862431643815	0.2914661270786463	0.023	2.6993214103310357	0.24022231462824803	0.2179	2.6813505968176443	0.2639976136902948	0.1804	2.7380335285059085	0.27341789592828286	-0.0119	3.164273952763655	0.5061548914487579	0.0301	2.9828442725169952	0.3578278091770537	0.129	2.8470096234645887	0.2354262202531224	0.023	2.7777891824439167	0.19167024590820864	0.2179	2.801658361032574	0.17648707308401035	0.1804	2.8362569147682235	0.22665517281084127	-0.0119	3.347674403125407	0.7652119115618877	0.0008	3.4288100107122084	0.8628851229713713	0.0655	3.3423575003095376	0.7758619518409344	0.1076	3.267380215604881	0.8270507516476029	-0.01275	3.1222779865874437	0.7173801647343323	0.0702	3.006356170314074	0.6079847758506849	0.1076	3.4149626054885354	0.6864242007974041	-0.01275	3.3305154077097323	0.5312995563762811	0.0702	3.2344993100741326	0.42196552250771996	0.1076
1322	52.91016543069024	3.121613395002661	0.5444416162849076	0.0301	3.0824611807490623	0.5790760648976844	0.0301	2.9232515375242705	0.4186532535994383	0.129	2.7505850176073467	0.28370089286368844	0.023	2.693790977841866	0.23104460339860888	0.2179	2.6754127554489524	0.2534073709598634	0.1804	2.7317132455480255	0.2664044620221363	-0.0119	3.157260751083837	0.5033577427061657	0.0301	2.976308471099391	0.3580064215568231	0.129	2.8479327501159415	0.2340177857793748	0.023	2.7766489726293098	0.1921388429692981	0.2179	2.80141612094791	0.17685477521294982	0.1804	2.837302274469158	0.22440367277698595	-0.0119	3.3421405203248655	0.7653807569309548	0.0008	3.416052751362208	0.8534480082004113	0.0655	3.335235100560792	0.7714687411832091	0.1076	3.2584572052264864	0.8230498687249892	-0.01275	3.1159754247553506	0.7139446212543834	0.0702	2.997893998415359	0.6067044404386168	0.1076	3.4075512576319604	0.6846630240530108	-0.01275	3.3224456524439465	0.5289896743996901	0.0702	3.228362824534667	0.42168488734053317	0.1076
1323	52.95018824871648	3.114423919755915	0.5419461999055737	0.0301	3.075129643413085	0.5747614503495343	0.0301	2.9189889964950217	0.41416824136151537	0.129	2.744007034022184	0.27333533111075986	0.023	2.684121388715652	0.21753416649967772	0.2179	2.6677636273231897	0.2398119922284399	0.1804	2.7248251897360323	0.25469958531958836	-0.0119	3.14867545419003	0.5014730592860513	0.0301	2.9700495440967396	0.3585910623572328	0.129	2.849485576167579	0.2336755623216926	0.023	2.7772854208401276	0.19011761168517877	0.2179	2.8027840201039576	0.17546805094448056	0.1804	2.8386494675008676	0.22220169980322477	-0.0119	3.3376029832522116	0.7667505015341421	0.0008	3.40927345859723	0.851386534828847	0.0655	3.3289432655400355	0.7697961314506716	0.1076	3.250292243590587	0.8220946808729477	-0.01275	3.1074033136332297	0.7106465660269837	0.0702	2.98713352939609	0.6058553204909507	0.1076	3.401088291273564	0.683096055477063	-0.01275	3.3149443564490877	0.5280495669474593	0.0702	3.2209809965031244	0.41986815792090776	0.1076
1324	52.990211066742724	3.1087012868382935	0.5403254247178592	0.0301	3.0692714579953684	0.5719910513057627	0.0301	2.913947801457391	0.409890462075029	0.129	2.737486814362097	0.2658747509302943	0.023	2.675329573807068	0.20489107424710692	0.2179	2.660098082126476	0.22912246549357032	0.1804	2.717588789633817	0.2458169292598372	-0.0119	3.140395149783238	0.500328953815734	0.0301	2.9641770613135434	0.35931339479834035	0.129	2.8532673483842537	0.2367406470192991	0.023	2.778463666568005	0.18704740332021635	0.2179	2.804552475916179	0.1726233710841888	0.1804	2.8436533572616733	0.22365917298060725	-0.0119	3.333343322395136	0.7687046817121856	0.0008	3.405602816355138	0.8546637736088692	0.0655	3.32396609670603	0.7727043792352429	0.1076	3.2440400625217043	0.8235990342499606	-0.01275	3.0996694311796165	0.7094083278507081	0.0702	2.979100794159021	0.6075213286598923	0.1076	3.39588235767118	0.6827935023929832	-0.01275	3.309944263555362	0.5277915626196152	0.0702	3.2134206794906732	0.4177174271631757	0.1076
